<?xml version="1.0" standalone="no"?><!DOCTYPE svg PUBLIC "-//W3C//DTD SVG 20010904//EN"
    "http://www.w3.org/TR/2001/REC-SVG-20010904/DTD/svg10.dtd">
<svg version="1.0" xmlns="http://www.w3.org/2000/svg" width="388.000000pt" height="391.000000pt"
    viewBox="0 0 388.000000 391.000000" preserveAspectRatio="xMidYMid meet">

    <g transform="translate(0.000000,391.000000) scale(0.100000,-0.100000)" fill="#000000"
        stroke="none">
        <path d="M2835 3846 c-122 -53 -123 -232 -2 -286 35 -16 66 -20 182 -20 l140
0 -277 -277 c-152 -153 -281 -288 -287 -300 -27 -52 -3 -144 47 -183 36 -29
94 -44 139 -36 33 7 74 43 321 289 l282 282 0 -141 c0 -125 2 -144 23 -184 44
-89 155 -114 233 -55 64 49 65 54 62 460 -3 349 -4 365 -24 391 -11 15 -33 37
-48 48 -26 20 -41 21 -394 23 -290 2 -373 0 -397 -11z" />
        <path d="M1673 3834 c-203 -29 -388 -86 -570 -175 -444 -217 -779 -583 -957
-1045 -242 -629 -126 -1356 301 -1884 456 -563 1180 -823 1883 -676 918 192
1565 1018 1527 1950 -13 320 -48 404 -172 414 -65 5 -124 -22 -155 -74 -25
-39 -25 -41 -1 -289 33 -343 -76 -735 -289 -1037 -323 -457 -882 -720 -1429
-670 -715 64 -1271 548 -1438 1252 -30 130 -42 403 -24 545 90 683 597 1224
1281 1366 79 16 158 23 317 28 235 7 241 8 291 82 30 43 27 120 -6 166 -40 57
-69 63 -279 62 -103 -1 -229 -7 -280 -15z" />
        <path d="M1875 3046 c-74 -34 -95 -83 -95 -220 l0 -102 -72 -17 c-259 -60
-427 -260 -404 -481 9 -93 70 -209 147 -280 114 -106 242 -151 474 -166 191
-12 263 -37 311 -110 33 -50 26 -87 -26 -134 -59 -53 -130 -71 -275 -70 -211
2 -298 53 -320 189 -13 81 -103 137 -192 120 -50 -9 -109 -69 -119 -120 -9
-50 9 -140 44 -213 31 -66 125 -165 196 -207 62 -36 168 -75 206 -75 l30 0 0
-103 c0 -87 4 -110 23 -147 44 -88 155 -114 232 -56 52 40 59 60 65 185 l5
113 72 19 c233 59 383 216 400 420 15 173 -101 353 -281 438 -92 44 -175 62
-336 71 -171 11 -237 28 -290 76 -47 43 -57 80 -34 129 45 95 266 144 454 99
111 -26 160 -71 174 -164 10 -57 42 -99 93 -122 58 -26 111 -20 159 17 65 50
79 124 45 234 -27 86 -61 140 -130 204 -71 65 -158 111 -258 134 l-73 17 0
112 c0 121 -11 152 -72 197 -34 25 -113 32 -153 13z" />
    </g>
</svg>
