<?xml version="1.0" standalone="no"?><!DOCTYPE svg PUBLIC "-//W3C//DTD SVG 20010904//EN"
    "http://www.w3.org/TR/2001/REC-SVG-20010904/DTD/svg10.dtd">
<svg version="1.0" xmlns="http://www.w3.org/2000/svg" width="389.000000pt" height="389.000000pt"
    viewBox="0 0 389.000000 389.000000" preserveAspectRatio="xMidYMid meet">

    <g transform="translate(0.000000,389.000000) scale(0.100000,-0.100000)" fill="#000000"
        stroke="none">
        <path d="M3485 3856 c-16 -8 -151 -136 -300 -285 l-270 -272 -5 149 c-5 138
-7 151 -30 185 -34 50 -98 81 -152 74 -48 -6 -84 -30 -115 -77 -23 -33 -23
-36 -23 -398 l0 -365 24 -42 c45 -75 49 -76 466 -73 l365 3 34 24 c97 70 85
218 -23 270 -37 18 -61 21 -181 21 l-140 0 277 278 c290 292 307 314 294 385
-10 52 -41 93 -88 116 -51 24 -90 26 -133 7z" />
        <path d="M1726 3849 c-285 -34 -585 -143 -825 -299 -119 -77 -184 -130 -295
-238 -279 -273 -460 -605 -541 -994 -38 -180 -45 -468 -17 -658 86 -569 415
-1065 902 -1360 874 -529 2016 -280 2584 565 274 407 382 878 311 1361 -22
152 -62 199 -171 199 -51 0 -66 -4 -96 -27 -22 -17 -43 -46 -53 -71 -15 -41
-15 -53 -1 -148 31 -212 28 -359 -10 -549 -52 -260 -203 -561 -372 -743 -87
-94 -97 -103 -163 -159 -211 -177 -479 -303 -754 -354 -153 -29 -432 -26 -585
5 -639 131 -1123 612 -1262 1255 -30 139 -32 451 -4 601 57 310 210 604 428
827 118 120 191 178 336 265 247 149 538 223 873 223 88 0 140 4 163 14 42 17
82 70 91 117 9 49 -22 118 -66 150 -33 23 -41 24 -214 25 -99 1 -216 -2 -259
-7z" />
        <path d="M1890 3059 c-14 -6 -36 -20 -48 -32 -44 -41 -52 -70 -52 -185 l0
-108 -72 -17 c-101 -25 -188 -70 -263 -139 -161 -148 -190 -358 -74 -540 40
-62 112 -126 185 -165 92 -49 192 -72 354 -83 80 -5 159 -13 175 -18 105 -32
171 -97 166 -164 -2 -33 -61 -87 -119 -108 -72 -28 -224 -37 -313 -21 -126 24
-189 75 -203 163 -9 59 -43 104 -94 129 -106 52 -222 -25 -222 -146 0 -206
185 -406 423 -455 l57 -11 0 -107 c0 -85 4 -114 19 -142 55 -105 221 -103 278
3 12 22 19 65 23 141 l5 108 75 19 c212 53 358 196 390 381 35 201 -106 415
-328 495 -97 35 -144 44 -302 53 -170 9 -241 30 -289 86 -38 42 -40 87 -8 134
46 68 188 108 342 96 97 -7 146 -20 196 -52 49 -31 66 -58 79 -122 12 -67 34
-98 83 -124 85 -43 188 -3 222 87 15 39 16 53 6 107 -36 189 -194 343 -403
394 l-68 17 0 102 c0 87 -3 108 -23 145 -38 72 -126 107 -197 79z" />
    </g>
</svg>
